<?xml version="1.0" encoding="UTF-8"?>
<svg xmlns="http://www.w3.org/2000/svg" xmlns:xlink="http://www.w3.org/1999/xlink" viewBox="0 0 250 250" width="250px" height="250px">
<g id="surface26249416">
<path style=" stroke:none;fill-rule:nonzero;fill:rgb(75.686276%,38.431373%,85.490197%);fill-opacity:1;" d="M 125 247.5 C 57.34375 247.5 2.5 192.65625 2.5 125 C 2.5 57.34375 57.34375 2.5 125 2.5 C 192.65625 2.5 247.5 57.34375 247.5 125 C 247.5 192.65625 192.65625 247.5 125 247.5 Z M 125 247.5 "/>
<path style=" stroke:none;fill-rule:nonzero;fill:rgb(100%,100%,100%);fill-opacity:1;" d="M 125 6.550781 C 59.644531 6.550781 6.550781 59.644531 6.550781 125 C 6.550781 190.355469 59.644531 243.449219 125 243.449219 C 190.355469 243.449219 243.449219 190.355469 243.449219 125 C 243.449219 59.644531 190.355469 6.550781 125 6.550781 Z M 125 16.851562 C 184.789062 16.851562 233.148438 65.210938 233.148438 125 C 233.148438 184.789062 184.789062 233.148438 125 233.148438 C 65.210938 233.148438 16.851562 184.789062 16.851562 125 C 16.851562 65.210938 65.210938 16.851562 125 16.851562 Z M 171.800781 68.53125 C 168.28125 68.53125 164.320312 69.347656 159.691406 71.015625 C 152.503906 73.605469 67.941406 109.507812 58.320312 113.59375 C 52.820312 115.933594 42.578125 120.28125 42.578125 130.652344 C 42.578125 137.527344 46.609375 142.445312 54.539062 145.277344 C 58.804688 146.796875 68.929688 149.867188 74.808594 151.484375 C 77.300781 152.167969 79.949219 152.519531 82.671875 152.519531 C 88.003906 152.519531 93.367188 151.191406 97.570312 148.847656 C 97.535156 149.714844 97.558594 150.589844 97.660156 151.464844 C 98.292969 156.871094 101.628906 161.957031 106.574219 165.074219 C 109.808594 167.113281 136.222656 184.8125 140.167969 187.625 C 145.710938 191.585938 151.835938 193.679688 157.871094 193.679688 C 169.40625 193.679688 173.277344 181.769531 175.140625 176.046875 C 177.847656 167.742188 187.96875 100.1875 189.113281 88.277344 C 189.890625 80.113281 186.488281 73.390625 180.011719 70.292969 C 177.585938 69.121094 174.816406 68.53125 171.800781 68.53125 Z M 171.800781 78.832031 C 173.21875 78.832031 174.484375 79.066406 175.554688 79.585938 C 177.992188 80.753906 179.230469 83.359375 178.855469 87.300781 C 177.605469 100.292969 167.507812 166.246094 165.355469 172.859375 C 163.511719 178.511719 161.570312 183.378906 157.871094 183.378906 C 154.171875 183.378906 150.132812 182.082031 146.152344 179.234375 C 142.171875 176.394531 115.738281 158.664062 112.066406 156.351562 C 108.847656 154.324219 105.4375 149.265625 110.234375 144.371094 C 114.183594 140.34375 144.148438 111.265625 146.707031 108.703125 C 148.613281 106.792969 147.722656 104.492188 145.851562 104.492188 C 145.207031 104.492188 144.4375 104.761719 143.636719 105.414062 C 140.507812 107.976562 96.855469 137.1875 93.074219 139.535156 C 90.570312 141.089844 86.695312 142.210938 82.671875 142.210938 C 80.957031 142.210938 79.222656 142.003906 77.554688 141.546875 C 71.746094 139.945312 61.914062 136.960938 58.011719 135.570312 C 54.253906 134.234375 52.890625 132.949219 52.890625 130.652344 C 52.890625 127.386719 57.5 125.132812 62.355469 123.070312 C 67.484375 120.890625 156.242188 83.199219 163.183594 80.703125 C 166.394531 79.539062 169.335938 78.832031 171.800781 78.832031 Z M 171.800781 78.832031 "/>
</g>
</svg>
